<svg xmlns="http://www.w3.org/2000/svg" viewBox="0 0 60.13 107.27"><defs><style>.cls-1{fill:#395067;}</style></defs><g id="圖層_2" data-name="圖層 2"><g id="圖層_1-2" data-name="圖層 1"><g id="圖層_1-3" data-name="圖層 1"><g id="剪影_純色"><path class="cls-1" d="M21.37,59.4c2.52-5.33,5-10.66,7.56-16,1-2.14,2.39-4.17,3.09-6.4a47.29,47.29,0,0,0,1.5-8,30.06,30.06,0,0,1,4.75-12.16,38,38,0,0,1,12.3-12A35.76,35.76,0,0,0,54.5,1.68,5.28,5.28,0,0,1,57.94,0c1.52,0,2,0,2,1.56.07,4.37.45,8.8,0,13.11C59,22,54.77,27.34,48.48,31A22.6,22.6,0,0,1,38,34.24a3.48,3.48,0,0,0-2.9,2.14c-2.32,4.27-4.75,8.49-6.88,12.86-3,6.17-6.09,12.33-7.65,19.1-.8,3.47-1.76,6.9-2.67,10.46,4.14-4.81,8-10,14.64-11.41l.47.55a14.94,14.94,0,0,1-2.21,2.28A51.08,51.08,0,0,0,19.47,80.41c-2.2,2.7-2.67,6-3.15,9.24a47.92,47.92,0,0,0,.29,14.88c.23,1.41.13,2.6-1.7,2.73s-2.07-1.32-2.15-2.54a50,50,0,0,1,.63-13.1C15.18,82.81,17,74,18.65,65.18a16.23,16.23,0,0,0-1.77-11.37,8.58,8.58,0,0,0-3.21-2.53C8.25,48.2,5.53,43.13,3.88,37.49,2.33,32.18,1.32,26.72.1,21.31A6.75,6.75,0,0,1,0,19.75c0-1.37.84-1.86,2-1.32C7.88,21.3,14,24,18.31,29.19c2.82,3.37,4,7.55,4.31,11.9a55.37,55.37,0,0,1-1.41,16.72A13.54,13.54,0,0,0,21,59.37ZM17.59,46.9l.61-.31c-.57-7.51-5.39-12.77-9.68-18.32L8,28.54Q12.79,37.74,17.59,46.9ZM38.73,29.72c3.12-1.24,11.88-13.42,12.06-16.79C45.49,17.76,42.52,23.83,38.73,29.72Z"/></g></g></g></g></svg>