<svg xmlns="http://www.w3.org/2000/svg" viewBox="0 0 287.35 121.81"><defs><style>.cls-1{fill:#395067;}</style></defs><g id="圖層_2" data-name="圖層 2"><g id="圖層_1-2" data-name="圖層 1"><g id="圖層_1-3" data-name="圖層 1"><g id="剪影_純色"><path class="cls-1" d="M21.37,59.4c2.52-5.33,5-10.66,7.56-16,1-2.14,2.39-4.17,3.09-6.4a47.29,47.29,0,0,0,1.5-8,30.06,30.06,0,0,1,4.75-12.16,38,38,0,0,1,12.3-12A35.76,35.76,0,0,0,54.5,1.68,5.28,5.28,0,0,1,57.94,0c1.52,0,2,0,2,1.56.07,4.37.45,8.8,0,13.11C59,22,54.77,27.34,48.48,31A22.6,22.6,0,0,1,38,34.24a3.48,3.48,0,0,0-2.9,2.14c-2.32,4.27-4.75,8.49-6.88,12.86-3,6.17-6.09,12.33-7.65,19.1-.8,3.47-1.76,6.9-2.67,10.46,4.14-4.81,8-10,14.64-11.41l.47.55a14.94,14.94,0,0,1-2.21,2.28A51.08,51.08,0,0,0,19.47,80.41c-2.2,2.7-2.67,6-3.15,9.24a47.92,47.92,0,0,0,.29,14.88c.23,1.41.13,2.6-1.7,2.73s-2.07-1.32-2.15-2.54a50,50,0,0,1,.63-13.1C15.18,82.81,17,74,18.65,65.18a16.23,16.23,0,0,0-1.77-11.37,8.58,8.58,0,0,0-3.21-2.53C8.25,48.2,5.53,43.13,3.88,37.49,2.33,32.18,1.32,26.72.1,21.31A6.75,6.75,0,0,1,0,19.75c0-1.37.84-1.86,2-1.32C7.88,21.3,14,24,18.31,29.19c2.82,3.37,4,7.55,4.31,11.9a55.37,55.37,0,0,1-1.41,16.72A13.54,13.54,0,0,0,21,59.37ZM17.59,46.9l.61-.31c-.57-7.51-5.39-12.77-9.68-18.32L8,28.54Q12.79,37.74,17.59,46.9ZM38.73,29.72c3.12-1.24,11.88-13.42,12.06-16.79C45.49,17.76,42.52,23.83,38.73,29.72Z"/><path class="cls-1" d="M119.55,64.2c-4.12.43-8,.85-11.8,1.21a24,24,0,0,1-4.15.14c-2-.16-3.14-1.9-2.59-4,6.64-.25,13.33-.51,20-.74,2.11-.07,2.67-.62,2.54-2.73a8.42,8.42,0,0,0-.31-2.73,2.53,2.53,0,0,0-1.73-1.38,18.54,18.54,0,0,0-3.48.52,5.79,5.79,0,0,1-1.46-.35c6.22-3.87,10.23-9.11,13.17-15.72h-4.67a15.92,15.92,0,0,1-4.15-.12c-.78-.21-1.41-1.31-1.87-2.14-.11-.19.71-1.24,1.21-1.34a14.46,14.46,0,0,1,3.29,0c1.79.06,3.57.22,5.35.19.41,0,1.16-.59,1.16-.91a19.75,19.75,0,0,0-.3-5c-.47-2,.19-3,2.24-2.74a14.07,14.07,0,0,1,2.66.75A1.85,1.85,0,0,1,136,29.21c-.18,1.43-.32,2.87-.44,4.31a11.26,11.26,0,0,0,.05,1.38c2.33-.42,4.48-.87,6.65-1.17s3.34.43,3.44,2.32c0,.38,0,1-.24,1.14-2.7,1.94-1.61,4.94-2.14,7.48a9,9,0,0,0-.05,2.26c.11,2,1,3.21,2.4,3.38a4.38,4.38,0,0,0,4-2.55c.42-1.14.82-2.28,1.27-3.41.32-.79.66-2,1.75-1.23a3.62,3.62,0,0,1,.94,2.31,8.33,8.33,0,0,1-.37,2,2.65,2.65,0,0,0,1.25,2.85,2.16,2.16,0,0,1-1,3.87c-2.49.49-5,.68-7.57,1a25,25,0,0,1-2.6.07c-2.84,0-4.77-1.52-4.8-4.33,0-3.28.39-6.56.61-9.84.07-1,.62-2.16-.92-2.57-2.17-.58-3.15-.08-3.92,1.55a54,54,0,0,1-3.49,6.55c-1.32,2-3,3.82-4.56,5.82.94,1.07,3.4.57,3.39,2.75,0,1.6-.26,3.21-.44,5.24,4.69-.29,9.22-.52,13.74-.91a5,5,0,0,0,2.4-1.27c1.22-1,2.34-1.33,3.72-.28,1.66,1.26,3.41,2.39,3.72,5.23-2.1.15-4.11.34-6.13.42-4.58.18-9.16.3-13.73.47a14.19,14.19,0,0,0-2.24.5c.92.66,1.51,1.12,2.13,1.52a71.3,71.3,0,0,0,14.85,7.48c1.3.46,2.68.68,4,1.14a11.44,11.44,0,0,1,2,1.18A10.55,10.55,0,0,1,147,79.62c-2.48.37-4.25-1.19-6.12-2.37a40.42,40.42,0,0,1-10.39-9.12,7.27,7.27,0,0,0-1.22-.78c-.06,2.89-.17,5.37-.14,7.84,0,1.38.33,2.76.43,4.14.2,2.59-1,4.12-3.28,4.12-1.77,0-3.09-1.67-3-3.94s.38-4.63.5-7c.08-1.46,0-2.93,0-4.73-6.93,5.84-13.93,10.77-23.35,12.53.58-.94.8-1.69,1.29-2,3.62-2.59,7.35-5,10.93-7.65,2.2-1.62,4.21-3.52,6.28-5.32C119.19,65.19,119.26,64.82,119.55,64.2Z"/><path class="cls-1" d="M191.13,53.65c-2.28,2.59-4.12,4.81-6.1,6.89-4.61,4.84-9.54,9.31-15.69,12.18a4.47,4.47,0,0,1-1.59.64,6.65,6.65,0,0,1-1.89-.51c.31-.63.45-1.51.95-1.85a64.58,64.58,0,0,0,15.85-15c2.24-3,4.08-6.27,6.33-9.78a8,8,0,0,0-1.9-.33c-4.24.58-8.48,1.11-12.7,1.84-2.55.44-4.9-.62-5.65-2.87-.55-1.65.12-2.49,1.7-2.48,3.65,0,7.3,0,10.94-.12,2.54-.05,5.08-.26,7.62-.23,1.48,0,2.08-.66,2-1.95-.24-3.34-.48-6.69-.93-10-.33-2.44-.34-2.54,1.87-3.5,1.93-.84,3.31.31,4.52,1.34.5.42.3,1.78.25,2.71-.18,3.4-.46,6.79-.61,10.19,0,.29.66.88,1,.87a86,86,0,0,0,8.65-.55,8.08,8.08,0,0,0,3.45-1.72,2,2,0,0,1,2.62-.18c1,.71,2.15,1.31,3.25,1.93a2.57,2.57,0,0,1,1.33,3.08c-.34,1.35-1.57,1.12-2.6,1.13l-14.28.09a13.94,13.94,0,0,0-1.91.28c1.77,2.63,3.12,5.25,5,7.34a105,105,0,0,0,9.94,9.62c2.71,2.27,5.9,4,8.83,6a26.33,26.33,0,0,1,2.4,2.1c0,.21-.05.42-.08.62-2,.62-4,1.27-6,1.83a17.23,17.23,0,0,1-2.38.32c-2.32.29-3.94-1-5.16-2.65-4.41-5.83-9.52-11.19-12.49-18a9.74,9.74,0,0,0-1.13-1.61l-.52.13c0,2.92-.06,5.84,0,8.75.15,6.38.37,12.75.55,19.13,0,1.77-2.19,3.65-4.17,3.51-1.68-.12-2.76-1.53-2.61-3.45.55-7.1,1.15-14.19,1.64-21.29A31.3,31.3,0,0,0,191.13,53.65Z"/><path class="cls-1" d="M236.32,32.11H254.4a32.54,32.54,0,0,0-.27-4.22c-.58-3-.17-3.68,2.74-3.52a7.35,7.35,0,0,1,3.1,1c1.26.73,1.95,1.69.74,3.26a3.83,3.83,0,0,0-.25,2.76c.06.29,1.33.5,2,.45,2.64-.22,5.26-.61,7.9-.85,2-.19,4-.25,5.81,1a2.14,2.14,0,0,1,.9,2.84c-1.19,0-2.45,0-3.7,0-3.88.13-7.76.31-11.64.43-1.22,0-1.66.64-1.5,1.79.09.61.2,1.21.32,1.89,2,0,4,.09,6.06,0a4.6,4.6,0,0,0,2.57-1c.79-.68,1.39-1,2.25-.31a15,15,0,0,1,2.28,1.82,2.63,2.63,0,0,1,.66,1.92c-.07.36-1.09.73-1.68.74-3.94.07-7.88,0-11.85,0a5.38,5.38,0,0,0-.29.76c-.83,4.21-.1,3.87,3,3.7q6.06-.33,12.1-.77a10.22,10.22,0,0,0,2-.51c.72-.2,1.58-.79,2.14-.58a18.54,18.54,0,0,1,4.41,2.31c1,.72.56,1.69-.55,2.07a6.79,6.79,0,0,1-2.07.23c-5.38.1-10.76.13-16.14.27-6.43.17-12.87.31-19.29.66a88.64,88.64,0,0,0-9.58,1.22c-2.32.38-3.9-.12-4.88-1.85-.85-1.52-.54-2.15,1.19-2.16,2.65,0,5.31.16,8,.08,4-.12,8-.4,12-.59,1.41-.07,1.78-.93,1.64-2.11s.14-2.41-1.76-2.23q-4.5.44-9,.58a3,3,0,0,1-2.09-.83,6.81,6.81,0,0,1-.82-2.35,10.67,10.67,0,0,1,2.26-.46c3.07,0,6.13.23,9.2.26,1.89,0,2.42-.62,2.34-2.41,0-1-.46-1.64-1.59-1.6-3.8.13-7.61.15-11.4.38C238.51,36.43,236.73,35.28,236.32,32.11Z"/><path class="cls-1" d="M259.61,75.64c1.54.12,3.08.2,4.62.36,2,.2,2.42-.17,2.46-2.19,0-1,0-2,0-3.25-1.5.11-2.9.29-4.3.31-3.42,0-6.85,0-10.27,0-1.25,0-1.74.42-1.74,1.7,0,2.53-.07,5.07-.28,7.6-.2,2.33-2,3.46-4.31,2.87-1.62-.41-1.7-1.75-1.67-3,.12-7.23.32-14.46.39-21.7a18.65,18.65,0,0,0-.77-3.25,2.61,2.61,0,0,1,.09-1.74,1.88,1.88,0,0,1,1.56-.7c4.59,1.33,9.3.85,13.95.9a30.13,30.13,0,0,0,7.11-1,7.8,7.8,0,0,1,5.49.8,2.84,2.84,0,0,1,.92,2.65c-1.28,2.79-.86,5.69-1,8.55-.19,4.86-.24,9.73-.56,14.58a4.24,4.24,0,0,1-4.63,4,3.54,3.54,0,0,1-2.13-1.12c-1.8-1.89-3.48-3.89-5.21-5.84A4.09,4.09,0,0,1,259.61,75.64ZM266.1,63c-.68,0-1.25.11-1.82.12-3.53.06-7.06,0-10.58.17-3.33.14-3.33.22-3.28,3.62,0,.1.09.2.21.48,1.05.08,2.19.23,3.33.24,3.24,0,6.48-.07,9.71,0,2.9.08,3.42-.42,2.89-3.29A7.25,7.25,0,0,0,266.1,63Zm-1-2.59c1.15.42,1.36-.72,1.45-2.12s-.46-2.17-2.1-2.12c-4.05.12-8.11,0-12.17.09-1.76,0-2.4.83-2.16,2.69.2,1.5,1.39,1.46,2.52,1.46Z"/><path class="cls-1" d="M205.82,110.56c1.28-3.88,2.53-7.28,3.44-10.75.18-.68-.92-1.69-1.4-2.49h4.8c-1.7,4.16-3.48,8.48-5.22,12.81-.54,1.34-.93,2.73-1.46,4.08-.15.38-.55.65-.83,1-.34-.32-.84-.59-1-1-1.19-3.07-2.31-6.17-3.46-9.26-.09-.25-.21-.48-.48-1.11-1.32,4.2-2.5,8.07-4.74,11.85-3.52-6.09-3.77-13.09-8.12-18.28h7.29c-.56.45-1.53.85-1.76,1.51a4.6,4.6,0,0,0,.25,2.64c.94,3,2,6,3,8.93l.5,0c.77-2.14,1.5-4.31,2.33-6.43,1.27-3.25.81-4.81-2.37-6.7H204s0,.2,0,.22c-2.51,1.12-2.59,1.46-1.56,4,.95,2.35,1.76,4.76,2.65,7.15C205.21,109.19,205.43,109.63,205.82,110.56Z"/><path class="cls-1" d="M112.59,32.58c-.26-1-.58-2.37-.93-3.7-.48-1.78-.31-1.91,1.54-1.52.75.16,1.6-.14,2.33,0,2,.47,2.64,1.76,2.11,3.73-1.31,4.84-2.38,9.76-4,14.49-1.46,4.23-3.31,8.38-6.66,11.6-1.44,1.38-4.35,1-5.15-.85a2.17,2.17,0,0,1,.59-1.89c5-4.33,7.85-9.93,9.53-16.18A42.59,42.59,0,0,0,112.59,32.58Z"/><path class="cls-1" d="M164.91,102.65c.25,2-1.43,1.4-2.17,1.95,1.31,4.26-.07,6.21-4.5,6.47a10.72,10.72,0,0,0-2.59.84l.06.6a12.84,12.84,0,0,0,1.71.4c1.32.13,2.65.21,4,.28,2.74.15,3.48,2.23,2.76,4.62-1.13,3.78-7.84,5.36-10.71,2.62-1.45-1.39-1-3.32,1.23-5.13-1.08-1.06-1.3-2.13-.12-3.36a1.8,1.8,0,0,0-.07-1.68c-1.3-1.82-1.74-3.71-.51-5.64s3.62-2.53,6.08-1.63a4.47,4.47,0,0,0,3.69-.07A8.31,8.31,0,0,1,164.91,102.65Zm-6.46,12.57a10.71,10.71,0,0,1-1.8,0,1.64,1.64,0,0,0-2,1.45,3.36,3.36,0,0,0,.54,2.52c1.59,1.77,5.29,1.28,6.54-.77a2.57,2.57,0,0,0,.17-1.74C161.46,114.55,159.66,115.51,158.45,115.22Zm2.05-7.9c0-2.37-.71-3.29-2.71-3.33-1.34,0-2,.88-2.07,2.74-.05,2.25.67,3.34,2.23,3.38C159.91,110.16,160.47,109.55,160.5,107.32Z"/><path class="cls-1" d="M214.17,97l5-1.33v8.13a24.54,24.54,0,0,1,4.9-.9c1.46,0,2.29,1.28,2.38,2.76s0,3,.08,4.51c.13,1.75-.82,4,2.23,4.73-2.31.26-4.35.64-6.52-.13,2.36-.74,2.11-2.5,2-4.23-.07-1.1,0-2.2-.06-3.31a2.37,2.37,0,0,0-2.59-2.56,2.35,2.35,0,0,0-2.52,2.63c0,1.28,0,2.56,0,3.83s-.42,3,1.69,3.33c0,0,0,.31.09.54h-6.44l-.38-.39c3.26-.7,2.3-3.07,2.35-5,.07-2.85-.07-5.7,0-8.54.07-1.75-.32-3.06-2.25-3.59A4.56,4.56,0,0,1,214.17,97Z"/><path class="cls-1" d="M249.63,104c1.41-.48,2.62-1,3.88-1.25.29-.07.73.55,1.18.92,3.09-1.62,5.29-1.37,7.25.95,1.54,1.82,1.6,5.76.11,7.83q-2.78,3.87-7.57,1.86c-1,3.38-.43,5.21,2.59,6.91H249.9l-.44-.32c2.83-1,2.18-3.18,2.19-5.13,0-2.9.07-5.8,0-8.69C251.62,105,251.56,105,249.63,104Zm4.56,5.34a8.59,8.59,0,0,0,0,1.9,3.67,3.67,0,0,0,.89,2,2.2,2.2,0,0,0,3.11.09,5.93,5.93,0,0,0,1.76-6.24,3.42,3.42,0,0,0-3.16-2.68,2.8,2.8,0,0,0-2.54,2.9Q254.24,108.3,254.19,109.35Z"/><path class="cls-1" d="M139.5,95.65c0,2.74,0,5.09,0,7.45,0,2.78,0,5.57-.07,8.35-.05,1.45,0,2.7,1.89,2.93a3.33,3.33,0,0,1-4.83-.32c-2.56,1.62-5.16,1.72-7.25-.77a6,6,0,0,1-.9-7,7.3,7.3,0,0,1,3.61-3.17c1.45-.54,3.25-.12,4.9-.12.73-4,.16-5.18-1.78-6.11Zm-2.38,13.14h0a25.76,25.76,0,0,0,0-2.78,1.82,1.82,0,0,0-.69-1.22,3.33,3.33,0,0,0-4.88,1.3,5.48,5.48,0,0,0,.11,5.76,4.14,4.14,0,0,0,4.33,1.37c1.57-.47,1.05-1.81,1.17-2.87A13.52,13.52,0,0,0,137.12,108.79Z"/><path class="cls-1" d="M111.44,114.58c1.82-.51,2-1.61,2-2.92-.05-1.57,0-3.13,0-4.7,0-1.29.08-2.57-2-2.55l.15-.61,3.88-1.35c.17.88.28,1.43.34,1.76,1.37-.52,2.7-1.36,4.1-1.48,2.38-.2,3.37.84,3.53,3.24.11,1.68,0,3.37,0,5,0,1.52-.47,3.27,1.65,4h-6.07c2.34-1,2-2.94,2-4.72,0-.93,0-1.86,0-2.78a2.78,2.78,0,0,0-2.63-2.88c-1.72,0-2.64,1-2.63,2.83,0,1.39.06,2.79,0,4.18s.09,2.55,1.8,2.83C116.59,115.43,113.81,115.53,111.44,114.58Z"/><path class="cls-1" d="M179,108.88c0,3.2-2.9,6.43-5.88,6.34a6.44,6.44,0,0,1-6.58-6.59,6.21,6.21,0,0,1,6.29-6A6,6,0,0,1,179,108.88Zm-9.47-.07a11.24,11.24,0,0,0,1,3.16,3.84,3.84,0,0,0,2.51,1.74,3.7,3.7,0,0,0,2.43-1.75,6.05,6.05,0,0,0,.31-5.51,3.24,3.24,0,0,0-3-2.43c-1.67,0-2.28,1.13-2.69,2.46C169.81,107.18,169.68,107.92,169.48,108.81Z"/><path class="cls-1" d="M275.47,108h-7.36c.13,5.08,2.51,6.42,7,4.19-.05,2-2.56,3.46-5,3-2.63-.51-4.19-2.22-4.63-5.1a6.28,6.28,0,0,1,3.28-6.66,4.24,4.24,0,0,1,4.87-.11A4.19,4.19,0,0,1,275.47,108Zm-2.2-1.32c-.71-1.59-1.18-3-2.88-2.67a2.66,2.66,0,0,0-2.1,3Z"/><path class="cls-1" d="M107.94,115H101c2-.86,2.29-2.34,2.24-4.15-.08-2.73-.09-5.46,0-8.18.09-2.38.23-4.67-3-5.23h7.9c-2.61.76-2.47,2.77-2.47,4.73,0,2.9,0,5.8,0,8.7C105.79,113.43,105.82,113.43,107.94,115Z"/><path class="cls-1" d="M247.19,106.19c-1-.79-1.85-1.49-2.73-2.17a1.31,1.31,0,0,0-2.27.6,1.83,1.83,0,0,0,1.17,2.64,17.59,17.59,0,0,1,3.51,2.13,2.55,2.55,0,0,1,.7,3.57,7.53,7.53,0,0,1-2.85,2.21,4.88,4.88,0,0,1-2.07.08c-2.84,0-3.13-.36-2.79-3.32,1,.69,1.9,1.42,2.9,2s1.75.65,2.38-.41a1.8,1.8,0,0,0-.52-2.72,20.55,20.55,0,0,0-2.75-1.44,3.29,3.29,0,0,1-2.11-3.78,3.39,3.39,0,0,1,3.06-2.89,7.55,7.55,0,0,1,1.9-.06C247.2,102.9,247.67,103.56,247.19,106.19Z"/><path class="cls-1" d="M284.56,115.1h-6.4a2.57,2.57,0,0,1,0-.42c2-.46,1.75-2,1.74-3.49,0-2.08,0-4.16,0-6.17l-2.24-.93,4.64-1.63c0,.52.05.84.08,1.28a7.09,7.09,0,0,1,1.1-.45,6.43,6.43,0,0,1,2.74-.41,2.27,2.27,0,0,1,1.13,1.92c-.12,1-1.06,1.24-2.05.91-2-.68-2.62-.24-2.74,1.93a11.67,11.67,0,0,0-.05,1.56c.19,2.09-1.36,4.81,2.56,5.57Z"/><path class="cls-1" d="M100.78,28.52a11,11,0,0,1,7.08,2.09,5.08,5.08,0,0,1,2.34,4.49c-.06,1.71-1,2.41-2.63,1.75a5,5,0,0,1-1.76-1.29c-1.84-2.1-3.6-4.26-5.4-6.39Z"/><path class="cls-1" d="M99,38.5c3,.19,5.75,0,7.78,2.12a3.06,3.06,0,0,1,.82,2.28c-.21,1.29-.26,3.06-2,3.27A3.62,3.62,0,0,1,103,45a43.65,43.65,0,0,1-3.43-4.74A8.23,8.23,0,0,1,99,38.5Z"/><path class="cls-1" d="M231.25,103.9l4-1.42v8.17c0,1.67-.32,3.49,1.86,4.4h-6.36c0-.16-.09-.32-.13-.49l2.18-.86c0-2.61.07-5.28-.06-7.94C232.68,105.21,231.9,104.69,231.25,103.9Z"/><path class="cls-1" d="M143.84,103.88l4.26-1.31c0,1.09,0,2,0,2.87,0,1.56-.13,3.13-.1,4.69,0,1.79-.57,3.85,1.68,5h-5.49c0-.25-.05-.64,0-.66,1.75-.47,1.57-1.83,1.54-3.17s0-2.78,0-4.17,0-2.78-2.2-2.77Z"/><path class="cls-1" d="M149.13,97.82c-1.06,1-1.57,1.83-2.24,2a1.61,1.61,0,0,1-2-1.78,2.47,2.47,0,0,1,1.6-1.77C147.16,96.17,147.92,97,149.13,97.82Z"/><path class="cls-1" d="M236.24,97.86c-.31,1.5-.9,2-2,2a1.56,1.56,0,0,1-1.72-2c.15-.68,1.18-1.65,1.76-1.62S235.58,97.28,236.24,97.86Z"/></g></g></g></g></svg>